<svg xmlns="http://www.w3.org/2000/svg" width="512" height="512" viewBox="0 0 512 512" role="img" aria-label="Carioca">
  <defs>
    <linearGradient id="bg" x1="0" y1="0" x2="1" y2="1">
      <stop offset="0" stop-color="#0b1220"/>
      <stop offset="1" stop-color="#0f172a"/>
    </linearGradient>
    <linearGradient id="card" x1="0" y1="0" x2="1" y2="1">
      <stop offset="0" stop-color="#f8fafc"/>
      <stop offset="1" stop-color="#e2e8f0"/>
    </linearGradient>
    <linearGradient id="accent" x1="0" y1="0" x2="1" y2="1">
      <stop offset="0" stop-color="#3b82f6"/>
      <stop offset="1" stop-color="#60a5fa"/>
    </linearGradient>
    <filter id="shadow" x="-20%" y="-20%" width="140%" height="140%">
      <feDropShadow dx="0" dy="16" stdDeviation="16" flood-color="#000000" flood-opacity="0.35"/>
    </filter>
  </defs>
  <rect width="512" height="512" rx="112" fill="url(#bg)"/>
  <g filter="url(#shadow)">
    <rect x="156" y="104" width="248" height="320" rx="28" fill="url(#card)"/>
    <rect x="176" y="124" width="208" height="280" rx="22" fill="#ffffff" opacity="0.6"/>
  </g>
  <g>
    <path d="M256 346c-56-40-92-74-92-120 0-28 20-48 48-48 20 0 34 10 44 24 10-14 24-24 44-24 28 0 48 20 48 48 0 46-36 80-92 120z" fill="#ef4444"/>
    <circle cx="348" cy="168" r="10" fill="url(#accent)"/>
    <circle cx="164" cy="344" r="10" fill="url(#accent)"/>
  </g>
  <text x="256" y="470" text-anchor="middle" font-family="system-ui, -apple-system, Segoe UI, Roboto, Arial" font-size="56" font-weight="800" fill="#e2e8f0" opacity="0.95">C</text>
</svg>

