<svg xmlns="http://www.w3.org/2000/svg" width="512" height="512" viewBox="0 0 512 512" role="img" aria-label="Carioca">
  <defs>
    <linearGradient id="bg" x1="0" y1="0" x2="1" y2="1">
      <stop offset="0" stop-color="#0b1220"/>
      <stop offset="1" stop-color="#0f172a"/>
    </linearGradient>
    <linearGradient id="card" x1="0" y1="0" x2="1" y2="1">
      <stop offset="0" stop-color="#f8fafc"/>
      <stop offset="1" stop-color="#e2e8f0"/>
    </linearGradient>
    <filter id="shadow" x="-20%" y="-20%" width="140%" height="140%">
      <feDropShadow dx="0" dy="14" stdDeviation="14" flood-color="#000000" flood-opacity="0.35"/>
    </filter>
  </defs>
  <rect width="512" height="512" fill="url(#bg)"/>
  <g filter="url(#shadow)">
    <rect x="148" y="96" width="260" height="336" rx="28" fill="url(#card)"/>
  </g>
  <path d="M256 354c-58-42-96-78-96-126 0-30 22-52 52-52 22 0 38 12 44 24 6-12 22-24 44-24 30 0 52 22 52 52 0 48-38 84-96 126z" fill="#ef4444"/>
  <text x="256" y="468" text-anchor="middle" font-family="system-ui, -apple-system, Segoe UI, Roboto, Arial" font-size="56" font-weight="800" fill="#e2e8f0" opacity="0.95">C</text>
</svg>

